<svg width="232" height="47" viewBox="0 0 232 47" fill="none" xmlns="http://www.w3.org/2000/svg">
<path d="M76.0896 13.3876C77.9276 13.3876 79.3302 13.852 80.2975 14.7806C81.2649 15.7093 81.7485 17.2086 81.7485 19.2787V29.726H76.2057V20.9909C76.2057 19.7721 76.0412 18.9305 75.7123 18.4662C75.3834 17.9825 74.8998 17.7407 74.2613 17.7407C73.3714 17.7407 72.7523 18.1373 72.404 18.9305C72.0558 19.7044 71.8817 20.8071 71.8817 22.2388V29.726H66.3388V20.9909C66.3388 19.8301 66.184 18.9982 65.8745 18.4952C65.5649 17.9922 65.1006 17.7407 64.4815 17.7407C63.5335 17.7407 62.8854 18.1663 62.5372 19.0176C62.2083 19.8688 62.0438 21.0973 62.0438 22.7031V29.726H56.501V13.6778H60.6799L61.4924 15.6512H61.6375C62.0632 14.9934 62.6726 14.4517 63.4658 14.0261C64.2784 13.6005 65.2747 13.3876 66.4549 13.3876C67.6351 13.3876 68.6024 13.5908 69.3569 13.9971C70.1308 14.384 70.7596 14.9257 71.2432 15.6222H71.4174C71.9204 14.9064 72.5685 14.355 73.3617 13.968C74.1743 13.5811 75.0836 13.3876 76.0896 13.3876Z" fill="#2B0E05"/>
<path d="M93.3566 13.3876C95.388 13.3876 96.9745 13.8907 98.1159 14.8967C99.2574 15.9027 99.8281 17.3344 99.8281 19.1917V29.726H95.9975L94.9237 27.6075H94.8076C94.3627 28.1686 93.8983 28.6329 93.4147 29.0005C92.9504 29.3488 92.4086 29.6003 91.7895 29.755C91.1704 29.9292 90.4159 30.0162 89.526 30.0162C88.133 30.0162 86.9722 29.5906 86.0435 28.7393C85.1149 27.8881 84.6506 26.5822 84.6506 24.8216C84.6506 23.0997 85.2406 21.8228 86.4208 20.9909C87.6203 20.159 89.3518 19.6947 91.6154 19.598L94.2853 19.5109V19.2787C94.2853 18.5629 94.1112 18.0599 93.7629 17.7697C93.4147 17.4601 92.9407 17.3054 92.3409 17.3054C91.7025 17.3054 90.9963 17.4214 90.2225 17.6536C89.4486 17.8664 88.665 18.1469 87.8718 18.4952L86.2757 14.8386C87.2043 14.355 88.2491 13.9971 89.4099 13.7649C90.59 13.5134 91.9056 13.3876 93.3566 13.3876ZM93.0374 22.6161C92.0314 22.6548 91.3155 22.8386 90.8899 23.1674C90.4836 23.477 90.2805 23.922 90.2805 24.5024C90.2805 25.0441 90.4256 25.4504 90.7158 25.7212C91.006 25.9727 91.3929 26.0985 91.8766 26.0985C92.5537 26.0985 93.1245 25.8857 93.5888 25.46C94.0725 25.0344 94.3143 24.483 94.3143 23.8059V22.558L93.0374 22.6161Z" fill="#2B0E05"/>
<path d="M113.295 13.3876C113.604 13.3876 113.924 13.407 114.253 13.4457C114.581 13.4844 114.823 13.5231 114.978 13.5618L114.485 18.7854C114.291 18.7467 114.049 18.708 113.759 18.6693C113.488 18.6306 113.101 18.6113 112.598 18.6113C112.134 18.6113 111.631 18.679 111.089 18.8144C110.567 18.9498 110.112 19.2497 109.725 19.714C109.338 20.159 109.145 20.8652 109.145 21.8325V29.726H103.602V13.6778H107.723L108.594 16.2316H108.855C109.3 15.4384 109.919 14.7709 110.712 14.2292C111.525 13.6682 112.386 13.3876 113.295 13.3876Z" fill="#2B0E05"/>
<path d="M122.777 16.3477C122.777 17.0055 122.748 17.731 122.69 18.5242C122.632 19.3174 122.555 20.0429 122.458 20.7007H122.574C122.787 20.3718 123.058 19.9559 123.387 19.4529C123.735 18.9498 124.035 18.5339 124.286 18.205L127.885 13.6778H134.066L128.494 20.4976L134.414 29.726H128.088L124.576 23.98L122.777 25.344V29.726H117.205V7.67065H122.777V16.3477Z" fill="#2B0E05"/>
<path d="M143.561 13.3876C145.902 13.3876 147.749 13.9971 149.104 15.2159C150.458 16.4348 151.135 18.2727 151.135 20.7297V23.1965H141.239C141.278 24.0284 141.588 24.7152 142.168 25.2569C142.768 25.7986 143.629 26.0695 144.751 26.0695C145.757 26.0695 146.676 25.9727 147.508 25.7793C148.34 25.5858 149.201 25.2762 150.09 24.8506V28.8264C149.317 29.2327 148.465 29.5325 147.537 29.726C146.627 29.9195 145.476 30.0162 144.083 30.0162C142.458 30.0162 141.007 29.7357 139.73 29.1746C138.473 28.5942 137.476 27.6946 136.741 26.4758C136.006 25.2569 135.638 23.6995 135.638 21.8035C135.638 19.8688 135.967 18.2824 136.625 17.0442C137.302 15.806 138.231 14.887 139.411 14.2873C140.611 13.6875 141.994 13.3876 143.561 13.3876ZM143.764 17.1603C143.106 17.1603 142.555 17.3634 142.11 17.7697C141.684 18.176 141.433 18.8241 141.355 19.714H146.115C146.095 18.9982 145.883 18.3985 145.476 17.9148C145.089 17.4118 144.519 17.1603 143.764 17.1603Z" fill="#2B0E05"/>
<path d="M162.139 25.6342C162.642 25.6342 163.096 25.5858 163.503 25.4891C163.928 25.373 164.363 25.2376 164.808 25.0828V29.1166C164.209 29.3681 163.57 29.5809 162.893 29.755C162.216 29.9292 161.355 30.0162 160.31 30.0162C159.266 30.0162 158.347 29.8518 157.553 29.5229C156.78 29.194 156.17 28.6329 155.725 27.8397C155.28 27.0271 155.058 25.8953 155.058 24.4443V17.8277H153.113V15.5642L155.58 13.8229L157.002 10.4566H160.63V13.6778H164.576V17.8277H160.63V24.0671C160.63 25.1118 161.133 25.6342 162.139 25.6342Z" fill="#2B0E05"/>
<path d="M175.922 13.7939C177.799 13.7939 179.308 14.4711 180.449 15.8253C181.61 17.1796 182.19 19.2014 182.19 21.8906C182.19 24.5411 181.61 26.5628 180.449 27.9558C179.288 29.3294 177.77 30.0162 175.893 30.0162C174.694 30.0162 173.717 29.8034 172.962 29.3778C172.227 28.9328 171.637 28.4104 171.192 27.8107H170.989C171.047 28.1589 171.095 28.5749 171.134 29.0585C171.172 29.5229 171.192 29.9388 171.192 30.3064V36.6909H168.116V14.0841H170.611L171.047 16.1736H171.192C171.637 15.5158 172.227 14.9547 172.962 14.4904C173.717 14.0261 174.703 13.7939 175.922 13.7939ZM175.197 16.3187C173.746 16.3187 172.72 16.7443 172.12 17.5956C171.521 18.4275 171.211 19.6947 171.192 21.3972V21.8615C171.192 23.6608 171.482 25.0538 172.062 26.0404C172.643 27.0078 173.707 27.4915 175.255 27.4915C176.532 27.4915 177.479 26.9691 178.099 25.9244C178.718 24.8796 179.027 23.5157 179.027 21.8325C179.027 20.13 178.718 18.7854 178.099 17.7987C177.479 16.812 176.512 16.3187 175.197 16.3187Z" fill="#2B0E05"/>
<path d="M199.577 14.0841V29.726H197.11L196.675 27.6656H196.53C196.027 28.4781 195.33 29.0779 194.44 29.4648C193.55 29.8324 192.612 30.0162 191.625 30.0162C189.787 30.0162 188.385 29.5616 187.417 28.6523C186.45 27.743 185.966 26.3016 185.966 24.3283V14.0841H189.072V23.8639C189.072 26.2823 190.126 27.4915 192.235 27.4915C193.841 27.4915 194.953 27.0175 195.572 26.0695C196.191 25.1215 196.501 23.7672 196.501 22.0066V14.0841H199.577Z" fill="#2B0E05"/>
<path d="M214.78 25.3149C214.78 26.8433 214.219 28.0138 213.097 28.8264C211.975 29.6196 210.417 30.0162 208.425 30.0162C207.322 30.0162 206.374 29.9292 205.581 29.755C204.807 29.6003 204.091 29.3681 203.433 29.0585V26.3597C204.11 26.6886 204.904 26.9884 205.813 27.2593C206.742 27.5108 207.641 27.6366 208.512 27.6366C209.673 27.6366 210.504 27.4528 211.007 27.0852C211.53 26.7176 211.791 26.2242 211.791 25.6051C211.791 25.2569 211.694 24.9474 211.501 24.6765C211.307 24.3863 210.94 24.0961 210.398 23.8059C209.876 23.4963 209.102 23.1481 208.076 22.7612C207.07 22.3549 206.219 21.9583 205.523 21.5713C204.846 21.1651 204.323 20.6911 203.956 20.1493C203.588 19.5883 203.404 18.8725 203.404 18.0019C203.404 16.6476 203.946 15.6125 205.029 14.8967C206.132 14.1615 207.583 13.7939 209.382 13.7939C210.33 13.7939 211.22 13.8907 212.052 14.0841C212.903 14.2776 213.726 14.5484 214.519 14.8967L213.503 17.2473C212.826 16.9571 212.13 16.7153 211.414 16.5218C210.698 16.309 209.972 16.2026 209.237 16.2026C208.309 16.2026 207.602 16.3477 207.119 16.6379C206.635 16.9281 206.393 17.3344 206.393 17.8567C206.393 18.2243 206.509 18.5436 206.742 18.8144C206.974 19.0853 207.361 19.3561 207.902 19.627C208.463 19.8978 209.228 20.2267 210.195 20.6137C211.162 20.9813 211.985 21.3585 212.662 21.7455C213.358 22.1324 213.881 22.6064 214.229 23.1674C214.596 23.7285 214.78 24.4443 214.78 25.3149Z" fill="#2B0E05"/>
<path d="M221.524 13.5618C221.524 14.0648 221.504 14.5581 221.466 15.0418C221.427 15.5061 221.388 15.893 221.35 16.2026H221.553C222.056 15.39 222.723 14.7903 223.555 14.4033C224.406 14.0164 225.325 13.8229 226.312 13.8229C228.15 13.8229 229.553 14.2776 230.52 15.1869C231.507 16.0962 232 17.5472 232 19.5399V29.726H228.953V19.9752C228.953 17.5375 227.879 16.3187 225.732 16.3187C224.126 16.3187 223.023 16.8023 222.423 17.7697C221.824 18.7177 221.524 20.0816 221.524 21.8615V29.726H218.448V7.67065H221.524V13.5618Z" fill="#2B0E05"/>
<path fill-rule="evenodd" clip-rule="evenodd" d="M16.9285 29.0351C23.2249 29.0351 28.3293 23.9308 28.3293 17.6343C28.3293 11.3378 23.2249 6.23347 16.9285 6.23347C10.632 6.23347 5.52766 11.3378 5.52766 17.6343C5.52766 23.9308 10.632 29.0351 16.9285 29.0351ZM16.9285 34.5627C26.2778 34.5627 33.8569 26.9836 33.8569 17.6343C33.8569 8.28494 26.2778 0.705811 16.9285 0.705811C7.57913 0.705811 0 8.28494 0 17.6343C0 26.9836 7.57913 34.5627 16.9285 34.5627Z" fill="#FB7852"/>
<path fill-rule="evenodd" clip-rule="evenodd" d="M31.4386 41.4723C37.735 41.4723 42.8394 36.368 42.8394 30.0715C42.8394 23.775 37.735 18.6707 31.4386 18.6707C25.1421 18.6707 20.0378 23.775 20.0378 30.0715C20.0378 36.368 25.1421 41.4723 31.4386 41.4723ZM31.4386 47C40.7879 47 48.367 39.4208 48.367 30.0715C48.367 20.7222 40.7879 13.1431 31.4386 13.1431C22.0892 13.1431 14.5101 20.7222 14.5101 30.0715C14.5101 39.4208 22.0892 47 31.4386 47Z" fill="#FB7852"/>
</svg>
